<svg width="28" height="28" viewBox="0 0 28 28" fill="none" xmlns="http://www.w3.org/2000/svg">
<path d="M22.4463 6.51003H21.9797L18.0363 2.56669C17.7213 2.25169 17.208 2.25169 16.8813 2.56669C16.5663 2.88169 16.5663 3.39503 16.8813 3.72169L19.6697 6.51003H8.32967L11.118 3.72169C11.433 3.40669 11.433 2.89336 11.118 2.56669C10.803 2.25169 10.2897 2.25169 9.96301 2.56669L6.03134 6.51003H5.56467C4.51467 6.51003 2.33301 6.51003 2.33301 9.49669C2.33301 10.6284 2.56634 11.375 3.05634 11.865C3.33634 12.1567 3.67467 12.3084 4.03634 12.39C4.37467 12.4717 4.73634 12.4834 5.08634 12.4834H22.913C23.2747 12.4834 23.613 12.46 23.9397 12.39C24.9197 12.1567 25.6663 11.4567 25.6663 9.49669C25.6663 6.51003 23.4847 6.51003 22.4463 6.51003Z" fill="white"/>
<path d="M22.2248 14H5.68144C4.95811 14 4.40977 14.6417 4.52644 15.3533L5.50644 21.35C5.83311 23.3567 6.70811 25.6667 10.5931 25.6667H17.1381C21.0698 25.6667 21.7698 23.695 22.1898 21.49L23.3681 15.3883C23.5081 14.665 22.9598 14 22.2248 14ZM13.9998 22.75C11.2698 22.75 9.04144 20.5217 9.04144 17.7917C9.04144 17.3133 9.43811 16.9167 9.91644 16.9167C10.3948 16.9167 10.7914 17.3133 10.7914 17.7917C10.7914 19.565 12.2264 21 13.9998 21C15.7731 21 17.2081 19.565 17.2081 17.7917C17.2081 17.3133 17.6048 16.9167 18.0831 16.9167C18.5614 16.9167 18.9581 17.3133 18.9581 17.7917C18.9581 20.5217 16.7298 22.75 13.9998 22.75Z" fill="white"/>
</svg>
